<?xml version="1.0" encoding="utf-8"?>
<svg version="1.1" xmlns:xlink="http://www.w3.org/1999/xlink" width="55px" height="30px" xmlns="http://www.w3.org/2000/svg">
  <g transform="matrix(1 0 0 1 -974 -339 )">
    <path d="M 975 342  A 2 2 0 0 1 977 340 L 1026 340  A 2 2 0 0 1 1028 342 L 1028 366  A 2 2 0 0 1 1026 368 L 977 368  A 2 2 0 0 1 975 366 L 975 342  Z " fill-rule="nonzero" fill="#ffffff" stroke="none" fill-opacity="0" />
    <path d="M 974.5 342  A 2.5 2.5 0 0 1 977 339.5 L 1026 339.5  A 2.5 2.5 0 0 1 1028.5 342 L 1028.5 366  A 2.5 2.5 0 0 1 1026 368.5 L 977 368.5  A 2.5 2.5 0 0 1 974.5 366 L 974.5 342  Z " stroke-width="1" stroke-dasharray="9,4" stroke="#d9001b" fill="none" stroke-dashoffset="0.5" />
  </g>
</svg>