<?xml version="1.0" encoding="utf-8"?>
<svg version="1.1" xmlns:xlink="http://www.w3.org/1999/xlink" width="15px" height="29px" xmlns="http://www.w3.org/2000/svg">
  <g transform="matrix(1 0 0 1 -293 -190 )">
    <path d="M 14.7912205567452 17.6556919642857  C 14.9304068522484 18.1303943452381  15 18.637462797619  15 19.1768973214286  C 15 20.8275669642857  14.4673447537473 22.2489769345238  13.402034261242 23.4411272321429  C 12.3367237687366 24.6332775297619  10.9528907922912 25.3696056547619  9.25053533190578 25.6501116071429  L 9.25053533190578 28.4821428571429  C 9.25053533190578 28.6331845238095  9.20235546038544 28.7572544642857  9.10599571734475 28.8543526785714  C 9.00963597430407 28.9514508928571  8.8865096359743 29  8.73661670235546 29  L 6.56852248394004 29  C 6.42933618843683 29  6.30888650963597 28.9487537202381  6.20717344753747 28.8462611607143  C 6.10546038543897 28.7437686011905  6.05460385438972 28.6223958333333  6.05460385438972 28.4821428571429  L 6.05460385438972 25.6501116071429  C 5.34796573875803 25.5530133928571  4.66541755888651 25.3857886904762  4.00695931477516 25.1484375  C 3.34850107066381 24.9110863095238  2.8051391862955 24.6710379464286  2.37687366167024 24.4282924107143  C 1.94860813704497 24.185546875  1.5524625267666 23.9266183035714  1.18843683083512 23.6515066964286  C 0.82441113490364 23.3763950892857  0.575481798715204 23.1741071428571  0.441648822269807 23.0446428571429  C 0.307815845824411 22.9151785714286  0.214132762312634 22.8180803571429  0.160599571734475 22.7533482142857  C -0.0214132762312633 22.5267857142857  -0.0321199143468951 22.3056175595238  0.12847965738758 22.08984375  L 1.78265524625268 19.9051339285714  C 1.8576017130621 19.7972470238095  1.98072805139186 19.7325148809524  2.15203426124197 19.7109375  C 2.31263383297645 19.6893601190476  2.44111349036403 19.7379092261905  2.53747323340471 19.8565848214286  L 2.56959314775161 19.8889508928571  C 3.77944325481799 20.95703125  5.08029978586724 21.6313244047619  6.47216274089936 21.9118303571429  C 6.86830835117773 21.9981398809524  7.2644539614561 22.0412946428571  7.66059957173448 22.0412946428571  C 8.52783725910064 22.0412946428571  9.2906852248394 21.809337797619  9.94914346895075 21.3454241071429  C 10.6076017130621 20.8815104166667  10.9368308351178 20.223400297619  10.9368308351178 19.37109375  C 10.9368308351178 19.0690104166667  10.8565310492505 18.7831101190476  10.6959314775161 18.5133928571429  C 10.5353319057816 18.2436755952381  10.3559957173448 18.0171130952381  10.1579229122056 17.8337053571429  C 9.95985010706638 17.6502976190476  9.64668094218416 17.448009672619  9.21841541755889 17.2268415178571  C 8.79014989293362 17.0056733630952  8.43683083511777 16.8330543154762  8.15845824411135 16.708984375  C 7.88008565310493 16.5849144345238  7.45182012847966 16.4095982142857  6.87366167023555 16.1830357142857  C 6.45610278372591 16.0104166666667  6.12687366167023 15.8755580357143  5.88597430406852 15.7784598214286  C 5.64507494646681 15.6813616071429  5.31584582441114 15.5384114583333  4.8982869379015 15.349609375  C 4.48072805139186 15.1608072916667  4.14614561027837 14.9935825892857  3.89453961456103 14.8479352678571  C 3.64293361884368 14.7022879464286  3.34047109207709 14.5107886904762  2.98715203426124 14.2734375  C 2.6338329764454 14.0360863095238  2.34743040685225 13.8068266369048  2.1279443254818 13.5856584821429  C 1.90845824411135 13.3644903273809  1.67558886509636 13.1001674107143  1.42933618843683 12.7926897321429  C 1.1830835117773 12.4852120535714  0.993040685224839 12.1723400297619  0.859207708779443 11.8540736607143  C 0.725374732334047 11.5358072916667  0.612955032119914 11.1770833333333  0.521948608137045 10.7779017857143  C 0.430942184154176 10.3787202380952  0.385438972162741 9.95796130952381  0.385438972162741 9.515625  C 0.385438972162741 8.02678571428572  0.910064239828694 6.72135416666666  1.9593147751606 5.59933035714286  C 3.00856531049251 4.47730654761904  4.37366167023555 3.75446428571429  6.05460385438972 3.43080357142857  L 6.05460385438972 0.517857142857144  C 6.05460385438972 0.377604166666665  6.10546038543897 0.256231398809524  6.20717344753747 0.153738839285715  C 6.30888650963597 0.051246279761906  6.42933618843683 0  6.56852248394004 0  L 8.73661670235546 0  C 8.8865096359743 0  9.00963597430407 0.0485491071428558  9.10599571734475 0.145647321428571  C 9.20235546038544 0.242745535714285  9.25053533190578 0.366815476190473  9.25053533190578 0.517857142857144  L 9.25053533190578 3.36607142857143  C 9.86081370449679 3.43080357142857  10.4523554603854 3.55487351190476  11.0251605995717 3.73828125  C 11.597965738758 3.92168898809524  12.063704496788 4.10239955357143  12.4223768736617 4.28041294642857  C 12.7810492505353 4.45842633928571  13.1209850107066 4.66071428571429  13.4421841541756 4.88727678571429  C 13.7633832976445 5.11383928571429  13.9721627408994 5.27027529761904  14.06852248394 5.35658482142857  C 14.1648822269807 5.44289434523809  14.245182012848 5.51841517857143  14.3094218415418 5.58314732142857  C 14.4914346895075 5.77734375  14.5182012847966 5.98232886904762  14.389721627409 6.19810267857143  L 13.0888650963597 8.56082589285714  C 13.0032119914347 8.72265625  12.8800856531049 8.80896577380952  12.7194860813704 8.81975446428572  C 12.5695931477516 8.85212053571428  12.4250535331906 8.81436011904762  12.2858672376874 8.70647321428572  C 12.2537473233405 8.67410714285714  12.1761241970021 8.609375  12.0529978586724 8.51227678571428  C 11.9298715203426 8.41517857142857  11.7210920770878 8.27222842261904  11.4266595289079 8.08342633928572  C 11.1322269807281 7.89462425595238  10.8190578158458 7.72200520833333  10.4871520342612 7.56556919642857  C 10.1552462526767 7.40913318452381  9.75642398286938 7.26888020833333  9.2906852248394 7.14481026785714  C 8.82494646680942 7.02074032738095  8.36723768736617 6.95870535714286  7.91755888650964 6.95870535714286  C 6.90042826552463 6.95870535714286  6.07066381156317 7.19066220238095  5.42826552462527 7.65457589285714  C 4.78586723768737 8.11848958333333  4.46466809421842 8.7172619047619  4.46466809421842 9.45089285714286  C 4.46466809421842 9.73139880952381  4.51017130620985 9.99032738095238  4.60117773019272 10.2276785714286  C 4.69218415417559 10.4650297619048  4.85010706638116 10.6888950892857  5.07494646680942 10.8992745535714  C 5.29978586723769 11.1096540178571  5.51124197002141 11.2876674107143  5.7093147751606 11.4333147321429  C 5.90738758029979 11.5789620535714  6.20717344753747 11.7461867559524  6.60867237687366 11.9349888392857  C 7.01017130620985 12.123790922619  7.33404710920771 12.2694382440476  7.58029978586724 12.3719308035714  C 7.82655246252677 12.4744233630952  8.20128479657388 12.6227678571429  8.70449678800857 12.8169642857143  C 9.27194860813705 13.0327380952381  9.70556745182013 13.2026599702381  10.0053533190578 13.3267299107143  C 10.3051391862955 13.4507998511905  10.7119914346895 13.6396019345238  11.2259100642398 13.8931361607143  C 11.7398286937901 14.1466703869048  12.1440042826552 14.3759300595238  12.4384368308351 14.5809151785714  C 12.732869379015 14.785900297619  13.0647751605996 15.0556175595238  13.4341541755889 15.3900669642857  C 13.8035331905782 15.7245163690476  14.0872591006424 16.0670572916667  14.2853319057816 16.4176897321429  C 14.4834047109208 16.768322172619  14.652034261242 17.1809895833333  14.7912205567452 17.6556919642857  Z " fill-rule="nonzero" fill="#333333" stroke="none" transform="matrix(1 0 0 1 293 190 )" />
  </g>
</svg>