<?xml version="1.0" encoding="utf-8"?>
<svg version="1.1" xmlns:xlink="http://www.w3.org/1999/xlink" width="20px" height="18px" xmlns="http://www.w3.org/2000/svg">
  <g transform="matrix(1 0 0 1 -42 -119 )">
    <path d="M 17.0884520884521 0.0127750177430808  C 19.1441441441441 0.0809084457061728  20.1105651105651 1.46912704045422  19.987714987715 4.17743080198723  C 19.9058149058149 6.18736692689851  18.5462735462735 8.95954577714691  15.9090909090909 12.4939673527324  C 13.1818181818182 16.1646557842441  10.8804258804259 18  9.004914004914 18  C 7.84193284193284 18  6.85913185913186 16.8800567778566  6.05651105651106 14.6401703335699  C 5.6961506961507 13.277501774308  5.15561015561016 11.2249822569198  4.43488943488943 8.48261178140525  C 3.84520884520885 6.25124201561391  3.2022932022932 5.13555713271824  2.50614250614251 5.13555713271824  C 2.35872235872236 5.13555713271824  1.83865683865684 5.45919091554294  0.945945945945946 6.10645848119233  L 0 4.85450674237048  C 0.196560196560197 4.67565649396735  0.638820638820639 4.26472675656494  1.32678132678133 3.62171753016324  C 2.01474201474201 2.97870830376153  2.54709254709255 2.48687012065294  2.92383292383292 2.14620298083747  C 4.2014742014742 0.970901348474096  5.18837018837019 0.349183818310857  5.88452088452088 0.281050390347765  C 6.66257166257166 0.204400283889282  7.28910728910729 0.440738112136266  7.76412776412776 0.990063875088715  C 8.23914823914824 1.53938963804116  8.57084357084357 2.40596167494677  8.75921375921376 3.58977998580554  C 9.11957411957412 6.03406671398155  9.38984438984439 7.62242725337118  9.57002457002457 8.35486160397445  C 10.020475020475 10.4755145493258  10.5118755118755 11.5358410220014  11.044226044226 11.5358410220014  C 11.4619164619165 11.5358410220014  12.0925470925471 10.8502484031228  12.9361179361179 9.47906316536551  C 13.7633087633088 8.10787792760823  14.2096642096642 7.06032647267566  14.2751842751843 6.33640880056778  C 14.3816543816544 5.15259048970901  13.9352989352989 4.56068133427963  12.9361179361179 4.56068133427963  C 12.4692874692875 4.56068133427963  11.973791973792 4.67139815471966  11.4496314496315 4.89283179559972  C 12.4324324324324 1.5457771469127  14.3120393120393 -0.0809084457061768  17.0884520884521 0.0127750177430808  Z " fill-rule="nonzero" fill="#5f483a" stroke="none" transform="matrix(1 0 0 1 42 119 )" />
  </g>
</svg>