<svg t="1604312596562" class="icon" viewBox="0 0 1024 1024" version="1.1" xmlns="http://www.w3.org/2000/svg" p-id="5137" width="50" height="50"><path d="M512 96C400.882 96 296.416 139.272 217.844 217.844 139.272 296.416 96 400.882 96 512 96 623.118 139.272 727.584 217.844 806.156 296.416 884.728 400.882 928 512 928 623.118 928 727.584 884.728 806.156 806.156 884.728 727.584 928 623.118 928 512 928 400.882 884.728 296.416 806.156 217.844 727.584 139.272 623.118 96 512 96ZM512 0 512 0C794.77 0 1024 229.23 1024 512 1024 794.77 794.77 1024 512 1024 229.23 1024 0 794.77 0 512 0 229.23 229.23 0 512 0ZM448 704 576 704 576 832 448 832zM448 192 576 192 576 576 448 576z" p-id="5138" fill="#ffffff"></path></svg>