<?xml version="1.0" encoding="utf-8"?>
<svg version="1.1" xmlns:xlink="http://www.w3.org/1999/xlink" width="365px" height="397px" xmlns="http://www.w3.org/2000/svg">
  <g transform="matrix(1 0 0 1 -612 -332 )">
    <path d="M 613 336  A 3 3 0 0 1 616 333 L 973 333  A 3 3 0 0 1 976 336 L 976 725  A 3 3 0 0 1 973 728 L 616 728  A 3 3 0 0 1 613 725 L 613 336  Z " fill-rule="nonzero" fill="#ff3399" stroke="none" fill-opacity="0.0980392156862745" />
    <path d="M 612.5 336  A 3.5 3.5 0 0 1 616 332.5 L 973 332.5  A 3.5 3.5 0 0 1 976.5 336 L 976.5 725  A 3.5 3.5 0 0 1 973 728.5 L 616 728.5  A 3.5 3.5 0 0 1 612.5 725 L 612.5 336  Z " stroke-width="1" stroke-dasharray="9,4" stroke="#ff3399" fill="none" stroke-dashoffset="0.5" />
  </g>
</svg>