<?xml version="1.0" encoding="utf-8"?>
<svg version="1.1" xmlns:xlink="http://www.w3.org/1999/xlink" width="47px" height="47px" xmlns="http://www.w3.org/2000/svg">
  <g transform="matrix(1 0 0 1 -987 -70 )">
    <path d="M 1010.5 71  C 1023.1 71  1033 80.9  1033 93.5  C 1033 106.1  1023.1 116  1010.5 116  C 997.9 116  988 106.1  988 93.5  C 988 80.9  997.9 71  1010.5 71  Z " fill-rule="nonzero" fill="#ffffff" stroke="none" />
    <path d="M 1010.5 71  C 1023.1 71  1033 80.9  1033 93.5  C 1033 106.1  1023.1 116  1010.5 116  C 997.9 116  988 106.1  988 93.5  C 988 80.9  997.9 71  1010.5 71  Z " stroke-width="2" stroke="#e4e4e4" fill="none" />
  </g>
</svg>