<?xml version="1.0" encoding="utf-8"?>
<svg version="1.1" xmlns:xlink="http://www.w3.org/1999/xlink" width="50px" height="40px" xmlns="http://www.w3.org/2000/svg">
  <g transform="matrix(1 0 0 1 -643 -487 )">
    <path d="M 3.125 6.69510067708334  L 4 6.69510067708334  L 4 33.3048993229167  C 3.125 35.1617193229167  4.52442407226567 36.6666666666667  6.2314383789062 36  L 43.7685615722656 36  C 45.4759825195313 36.6666666666667  46.875 35.1644593229167  46 33.3048993229167  L 46 6.69510067708334  C 46.875 4.83828078125008  45.4755759277344 3.33333333333333  43.7685615722656 4  L 6.2314383789062 4  C 4.52401738281253 3.33333333333333  3.125 4.83554057291666  3.125 6.69510067708334  Z M 0 6.69510067708334  C 0 2.99749864583331  2.79535546875002 0  6.2314383789062 0  L 43.7685615722656 0  C 47.2100899902343 0  50 3.00650119791674  50 6.69510067708334  L 50 33.3048993229167  C 50 37.0025013541667  47.2046443847656 40  43.7685615722656 40  L 6.2314383789062 40  C 2.78991000976566 40  0 36.9934986458332  0 33.3048993229167  L 0 6.69510067708334  Z " fill-rule="nonzero" fill="#999999" stroke="none" transform="matrix(1 0 0 1 643 487 )" />
  </g>
</svg>