<svg t="1604047410469" class="icon" viewBox="0 0 1024 1024" version="1.1" xmlns="http://www.w3.org/2000/svg" p-id="2810" width="16" height="16"><path d="M652 691.6l-85 61.7 32.5 99.8-85-61.7-84.9 61.7 32.4-99.8-84.9-61.7h105l32.4-99.9 32.5 99.9z" fill="#E7711E" p-id="2811"></path><path d="M429.6 863.1c-2.1 0-4.1-0.6-5.9-1.9-3.5-2.5-5-7.1-3.6-11.2l30.2-92.9-79.1-57.4c-3.5-2.5-5-7.1-3.6-11.2 1.3-4.1 5.2-6.9 9.5-6.9h97.7l30.2-92.9c1.3-4.1 5.2-6.9 9.5-6.9s8.2 2.8 9.5 6.9l30.2 92.9H652c4.3 0 8.2 2.8 9.5 6.9s-0.1 8.6-3.6 11.2l-79.1 57.4L609 850c1.3 4.1-0.1 8.6-3.6 11.2-3.5 2.5-8.3 2.5-11.8 0l-79.1-57.4-79.1 57.4c-1.7 1.3-3.7 1.9-5.8 1.9z m-21.7-161.5l60 43.6c3.5 2.5 5 7.1 3.6 11.2L448.6 827l60-43.6c3.5-2.5 8.3-2.5 11.8 0l60 43.6-22.9-70.6c-1.3-4.1 0.1-8.6 3.6-11.2l60-43.6H547c-4.3 0-8.2-2.8-9.5-6.9l-22.9-70.6-22.9 70.6c-1.3 4.1-5.2 6.9-9.5 6.9h-74.3z" fill="" p-id="2812"></path><path d="M514.5 983.4c-69.7 0-135.2-27.1-184.5-76.4-49.3-49.3-76.4-114.8-76.4-184.6 0-69.7 27.1-135.2 76.4-184.5s114.8-76.4 184.5-76.4 135.2 27.1 184.5 76.4 76.4 114.8 76.4 184.5S748.3 857.7 699 907c-49.2 49.3-114.8 76.4-184.5 76.4z m0-502c-132.9 0-241 108.1-241 241s108.1 241 241 241 241-108.1 241-241-108.1-241-241-241zM369.6 363.3c-3.6 0-6.9-1.9-8.7-5L190.3 63.6c-1.8-3.1-1.8-6.9 0-10 1.8-3.1 5.1-5 8.7-5h176c3.6 0 6.9 1.9 8.7 5l82.7 142.8c1.8 3.1 1.8 6.9 0 10l-88 152c-1.9 3-5.2 4.9-8.8 4.9zM216.3 68.6l153.4 264.8 76.5-132-77-132.8H216.3zM616.4 427.3H403c-3.6 0-6.9-1.9-8.7-5-1.8-3.1-1.8-6.9 0-10L501 228.1 601.3 55c1.8-3.1 5.1-5 8.7-5h213.4c3.6 0 6.9 1.9 8.7 5 1.8 3.1 1.8 6.9 0 10L625 422.3c-1.7 3.1-5 5-8.6 5z m-196.1-20h190.3L806 70H615.7l-97.4 168.1-98 169.2z" fill="" p-id="2813"></path></svg>