<?xml version="1.0" encoding="utf-8"?>
<svg version="1.1" xmlns:xlink="http://www.w3.org/1999/xlink" width="347px" height="165px" xmlns="http://www.w3.org/2000/svg">
  <g transform="matrix(1 0 0 1 -645 -431 )">
    <path d="M 646 435  A 3 3 0 0 1 649 432 L 988 432  A 3 3 0 0 1 991 435 L 991 592  A 3 3 0 0 1 988 595 L 649 595  A 3 3 0 0 1 646 592 L 646 435  Z " fill-rule="nonzero" fill="#ff3399" stroke="none" fill-opacity="0.0980392156862745" />
    <path d="M 645.5 435  A 3.5 3.5 0 0 1 649 431.5 L 988 431.5  A 3.5 3.5 0 0 1 991.5 435 L 991.5 592  A 3.5 3.5 0 0 1 988 595.5 L 649 595.5  A 3.5 3.5 0 0 1 645.5 592 L 645.5 435  Z " stroke-width="1" stroke-dasharray="9,4" stroke="#ff3399" fill="none" stroke-dashoffset="0.5" />
  </g>
</svg>