<?xml version="1.0" encoding="utf-8"?>
<svg version="1.1" xmlns:xlink="http://www.w3.org/1999/xlink" width="369px" height="367px" xmlns="http://www.w3.org/2000/svg">
  <g transform="matrix(1 0 0 1 -630 -1842 )">
    <path d="M 631 1846  A 3 3 0 0 1 634 1843 L 995 1843  A 3 3 0 0 1 998 1846 L 998 2205  A 3 3 0 0 1 995 2208 L 634 2208  A 3 3 0 0 1 631 2205 L 631 1846  Z " fill-rule="nonzero" fill="#ff3399" stroke="none" fill-opacity="0.0980392156862745" />
    <path d="M 630.5 1846  A 3.5 3.5 0 0 1 634 1842.5 L 995 1842.5  A 3.5 3.5 0 0 1 998.5 1846 L 998.5 2205  A 3.5 3.5 0 0 1 995 2208.5 L 634 2208.5  A 3.5 3.5 0 0 1 630.5 2205 L 630.5 1846  Z " stroke-width="1" stroke-dasharray="9,4" stroke="#ff3399" fill="none" stroke-dashoffset="0.5" />
  </g>
</svg>