<?xml version="1.0" encoding="utf-8"?>
<svg version="1.1" xmlns:xlink="http://www.w3.org/1999/xlink" width="369px" height="554px" xmlns="http://www.w3.org/2000/svg">
  <g transform="matrix(1 0 0 1 -639 -1206 )">
    <path d="M 640 1210  A 3 3 0 0 1 643 1207 L 1004 1207  A 3 3 0 0 1 1007 1210 L 1007 1756  A 3 3 0 0 1 1004 1759 L 643 1759  A 3 3 0 0 1 640 1756 L 640 1210  Z " fill-rule="nonzero" fill="#ff3399" stroke="none" fill-opacity="0.0980392156862745" />
    <path d="M 639.5 1210  A 3.5 3.5 0 0 1 643 1206.5 L 1004 1206.5  A 3.5 3.5 0 0 1 1007.5 1210 L 1007.5 1756  A 3.5 3.5 0 0 1 1004 1759.5 L 643 1759.5  A 3.5 3.5 0 0 1 639.5 1756 L 639.5 1210  Z " stroke-width="1" stroke-dasharray="9,4" stroke="#ff3399" fill="none" stroke-dashoffset="0.5" />
  </g>
</svg>