<?xml version="1.0" encoding="utf-8"?>
<svg version="1.1" xmlns:xlink="http://www.w3.org/1999/xlink" width="369px" height="103px" xmlns="http://www.w3.org/2000/svg">
  <g transform="matrix(1 0 0 1 -623 -2388 )">
    <path d="M 624 2392  A 3 3 0 0 1 627 2389 L 988 2389  A 3 3 0 0 1 991 2392 L 991 2487  A 3 3 0 0 1 988 2490 L 627 2490  A 3 3 0 0 1 624 2487 L 624 2392  Z " fill-rule="nonzero" fill="#ff3399" stroke="none" fill-opacity="0.0980392156862745" />
    <path d="M 623.5 2392  A 3.5 3.5 0 0 1 627 2388.5 L 988 2388.5  A 3.5 3.5 0 0 1 991.5 2392 L 991.5 2487  A 3.5 3.5 0 0 1 988 2490.5 L 627 2490.5  A 3.5 3.5 0 0 1 623.5 2487 L 623.5 2392  Z " stroke-width="1" stroke-dasharray="9,4" stroke="#ff3399" fill="none" stroke-dashoffset="0.5" />
  </g>
</svg>