<?xml version="1.0" encoding="utf-8"?>
<svg version="1.1" xmlns:xlink="http://www.w3.org/1999/xlink" width="369px" height="103px" xmlns="http://www.w3.org/2000/svg">
  <g transform="matrix(1 0 0 1 -622 -2499 )">
    <path d="M 623 2503  A 3 3 0 0 1 626 2500 L 987 2500  A 3 3 0 0 1 990 2503 L 990 2598  A 3 3 0 0 1 987 2601 L 626 2601  A 3 3 0 0 1 623 2598 L 623 2503  Z " fill-rule="nonzero" fill="#ff3399" stroke="none" fill-opacity="0.0980392156862745" />
    <path d="M 622.5 2503  A 3.5 3.5 0 0 1 626 2499.5 L 987 2499.5  A 3.5 3.5 0 0 1 990.5 2503 L 990.5 2598  A 3.5 3.5 0 0 1 987 2601.5 L 626 2601.5  A 3.5 3.5 0 0 1 622.5 2598 L 622.5 2503  Z " stroke-width="1" stroke-dasharray="9,4" stroke="#ff3399" fill="none" stroke-dashoffset="0.5" />
  </g>
</svg>