<?xml version="1.0" encoding="utf-8"?>
<svg version="1.1" xmlns:xlink="http://www.w3.org/1999/xlink" width="375px" height="217px" xmlns="http://www.w3.org/2000/svg">
  <g transform="matrix(1 0 0 1 -600 -2538 )">
    <path d="M 601 2542  A 3 3 0 0 1 604 2539 L 971 2539  A 3 3 0 0 1 974 2542 L 974 2751  A 3 3 0 0 1 971 2754 L 604 2754  A 3 3 0 0 1 601 2751 L 601 2542  Z " fill-rule="nonzero" fill="#ff3399" stroke="none" fill-opacity="0.0980392156862745" />
    <path d="M 600.5 2542  A 3.5 3.5 0 0 1 604 2538.5 L 971 2538.5  A 3.5 3.5 0 0 1 974.5 2542 L 974.5 2751  A 3.5 3.5 0 0 1 971 2754.5 L 604 2754.5  A 3.5 3.5 0 0 1 600.5 2751 L 600.5 2542  Z " stroke-width="1" stroke-dasharray="9,4" stroke="#ff3399" fill="none" stroke-dashoffset="0.5" />
  </g>
</svg>