<?xml version="1.0" encoding="utf-8"?>
<svg version="1.1" xmlns:xlink="http://www.w3.org/1999/xlink" width="336px" height="54px" xmlns="http://www.w3.org/2000/svg">
  <g transform="matrix(1 0 0 1 -616 -3008 )">
    <path d="M 617 3012  A 3 3 0 0 1 620 3009 L 948 3009  A 3 3 0 0 1 951 3012 L 951 3058  A 3 3 0 0 1 948 3061 L 620 3061  A 3 3 0 0 1 617 3058 L 617 3012  Z " fill-rule="nonzero" fill="#ff3399" stroke="none" fill-opacity="0.0980392156862745" />
    <path d="M 616.5 3012  A 3.5 3.5 0 0 1 620 3008.5 L 948 3008.5  A 3.5 3.5 0 0 1 951.5 3012 L 951.5 3058  A 3.5 3.5 0 0 1 948 3061.5 L 620 3061.5  A 3.5 3.5 0 0 1 616.5 3058 L 616.5 3012  Z " stroke-width="1" stroke-dasharray="9,4" stroke="#ff3399" fill="none" stroke-dashoffset="0.5" />
  </g>
</svg>