<?xml version="1.0" encoding="utf-8"?>
<svg version="1.1" xmlns:xlink="http://www.w3.org/1999/xlink" width="336px" height="54px" xmlns="http://www.w3.org/2000/svg">
  <g transform="matrix(1 0 0 1 -616 -3137 )">
    <path d="M 617 3141  A 3 3 0 0 1 620 3138 L 948 3138  A 3 3 0 0 1 951 3141 L 951 3187  A 3 3 0 0 1 948 3190 L 620 3190  A 3 3 0 0 1 617 3187 L 617 3141  Z " fill-rule="nonzero" fill="#ff3399" stroke="none" fill-opacity="0.0980392156862745" />
    <path d="M 616.5 3141  A 3.5 3.5 0 0 1 620 3137.5 L 948 3137.5  A 3.5 3.5 0 0 1 951.5 3141 L 951.5 3187  A 3.5 3.5 0 0 1 948 3190.5 L 620 3190.5  A 3.5 3.5 0 0 1 616.5 3187 L 616.5 3141  Z " stroke-width="1" stroke-dasharray="9,4" stroke="#ff3399" fill="none" stroke-dashoffset="0.5" />
  </g>
</svg>