<?xml version="1.0" encoding="utf-8"?>
<svg version="1.1" xmlns:xlink="http://www.w3.org/1999/xlink" width="357px" height="189px" xmlns="http://www.w3.org/2000/svg">
  <g transform="matrix(1 0 0 1 -649 -208 )">
    <path d="M 650 212  A 3 3 0 0 1 653 209 L 1002 209  A 3 3 0 0 1 1005 212 L 1005 393  A 3 3 0 0 1 1002 396 L 653 396  A 3 3 0 0 1 650 393 L 650 212  Z " fill-rule="nonzero" fill="#ff3399" stroke="none" fill-opacity="0.0980392156862745" />
    <path d="M 649.5 212  A 3.5 3.5 0 0 1 653 208.5 L 1002 208.5  A 3.5 3.5 0 0 1 1005.5 212 L 1005.5 393  A 3.5 3.5 0 0 1 1002 396.5 L 653 396.5  A 3.5 3.5 0 0 1 649.5 393 L 649.5 212  Z " stroke-width="1" stroke-dasharray="9,4" stroke="#ff3399" fill="none" stroke-dashoffset="0.5" />
  </g>
</svg>