<?xml version="1.0" encoding="utf-8"?>
<svg version="1.1" xmlns:xlink="http://www.w3.org/1999/xlink" width="369px" height="510px" xmlns="http://www.w3.org/2000/svg">
  <g transform="matrix(1 0 0 1 -635 -1010 )">
    <path d="M 636 1014  A 3 3 0 0 1 639 1011 L 1000 1011  A 3 3 0 0 1 1003 1014 L 1003 1516  A 3 3 0 0 1 1000 1519 L 639 1519  A 3 3 0 0 1 636 1516 L 636 1014  Z " fill-rule="nonzero" fill="#ff3399" stroke="none" fill-opacity="0.0980392156862745" />
    <path d="M 635.5 1014  A 3.5 3.5 0 0 1 639 1010.5 L 1000 1010.5  A 3.5 3.5 0 0 1 1003.5 1014 L 1003.5 1516  A 3.5 3.5 0 0 1 1000 1519.5 L 639 1519.5  A 3.5 3.5 0 0 1 635.5 1516 L 635.5 1014  Z " stroke-width="1" stroke-dasharray="9,4" stroke="#ff3399" fill="none" stroke-dashoffset="0.5" />
  </g>
</svg>