<?xml version="1.0" encoding="utf-8"?>
<svg version="1.1" xmlns:xlink="http://www.w3.org/1999/xlink" width="369px" height="137px" xmlns="http://www.w3.org/2000/svg">
  <g transform="matrix(1 0 0 1 -649 -801 )">
    <path d="M 650 805  A 3 3 0 0 1 653 802 L 1014 802  A 3 3 0 0 1 1017 805 L 1017 934  A 3 3 0 0 1 1014 937 L 653 937  A 3 3 0 0 1 650 934 L 650 805  Z " fill-rule="nonzero" fill="#ff3399" stroke="none" fill-opacity="0.0980392156862745" />
    <path d="M 649.5 805  A 3.5 3.5 0 0 1 653 801.5 L 1014 801.5  A 3.5 3.5 0 0 1 1017.5 805 L 1017.5 934  A 3.5 3.5 0 0 1 1014 937.5 L 653 937.5  A 3.5 3.5 0 0 1 649.5 934 L 649.5 805  Z " stroke-width="1" stroke-dasharray="9,4" stroke="#ff3399" fill="none" stroke-dashoffset="0.5" />
  </g>
</svg>