<?xml version="1.0" encoding="utf-8"?>
<svg version="1.1" xmlns:xlink="http://www.w3.org/1999/xlink" width="369px" height="251px" xmlns="http://www.w3.org/2000/svg">
  <g transform="matrix(1 0 0 1 -640 -1964 )">
    <path d="M 641 1968  A 3 3 0 0 1 644 1965 L 1005 1965  A 3 3 0 0 1 1008 1968 L 1008 2211  A 3 3 0 0 1 1005 2214 L 644 2214  A 3 3 0 0 1 641 2211 L 641 1968  Z " fill-rule="nonzero" fill="#ff3399" stroke="none" fill-opacity="0.0980392156862745" />
    <path d="M 640.5 1968  A 3.5 3.5 0 0 1 644 1964.5 L 1005 1964.5  A 3.5 3.5 0 0 1 1008.5 1968 L 1008.5 2211  A 3.5 3.5 0 0 1 1005 2214.5 L 644 2214.5  A 3.5 3.5 0 0 1 640.5 2211 L 640.5 1968  Z " stroke-width="1" stroke-dasharray="9,4" stroke="#ff3399" fill="none" stroke-dashoffset="0.5" />
  </g>
</svg>