<?xml version="1.0" encoding="utf-8"?>
<svg version="1.1" xmlns:xlink="http://www.w3.org/1999/xlink" width="355px" height="88px" xmlns="http://www.w3.org/2000/svg">
  <g transform="matrix(1 0 0 1 -643 -2379 )">
    <path d="M 644 2383  A 3 3 0 0 1 647 2380 L 994 2380  A 3 3 0 0 1 997 2383 L 997 2463  A 3 3 0 0 1 994 2466 L 647 2466  A 3 3 0 0 1 644 2463 L 644 2383  Z " fill-rule="nonzero" fill="#ff3399" stroke="none" fill-opacity="0.0980392156862745" />
    <path d="M 643.5 2383  A 3.5 3.5 0 0 1 647 2379.5 L 994 2379.5  A 3.5 3.5 0 0 1 997.5 2383 L 997.5 2463  A 3.5 3.5 0 0 1 994 2466.5 L 647 2466.5  A 3.5 3.5 0 0 1 643.5 2463 L 643.5 2383  Z " stroke-width="1" stroke-dasharray="9,4" stroke="#ff3399" fill="none" stroke-dashoffset="0.5" />
  </g>
</svg>