<?xml version="1.0" encoding="utf-8"?>
<svg version="1.1" xmlns:xlink="http://www.w3.org/1999/xlink" width="357px" height="189px" xmlns="http://www.w3.org/2000/svg">
  <g transform="matrix(1 0 0 1 -649 -337 )">
    <path d="M 650 341  A 3 3 0 0 1 653 338 L 1002 338  A 3 3 0 0 1 1005 341 L 1005 522  A 3 3 0 0 1 1002 525 L 653 525  A 3 3 0 0 1 650 522 L 650 341  Z " fill-rule="nonzero" fill="#ff3399" stroke="none" fill-opacity="0.0980392156862745" />
    <path d="M 649.5 341  A 3.5 3.5 0 0 1 653 337.5 L 1002 337.5  A 3.5 3.5 0 0 1 1005.5 341 L 1005.5 522  A 3.5 3.5 0 0 1 1002 525.5 L 653 525.5  A 3.5 3.5 0 0 1 649.5 522 L 649.5 341  Z " stroke-width="1" stroke-dasharray="9,4" stroke="#ff3399" fill="none" stroke-dashoffset="0.5" />
  </g>
</svg>