<svg t="1601261097452" class="icon" viewBox="0 0 1024 1024" version="1.1" xmlns="http://www.w3.org/2000/svg" p-id="2790" width="16" height="16"><path d="M487.691873 63.978127c57.936527 0 114.131387 11.343349 167.030178 33.716916 51.101865 21.614274 97.002264 52.5611 136.421043 91.980901 39.421848 39.420825 70.373791 85.319178 91.991134 136.420019 22.37459 52.896744 33.723056 109.09672 33.723056 167.040411 0 57.935504-11.348466 114.131387-33.723056 167.025061-21.617343 51.096748-52.568263 96.992031-91.991134 136.411833-39.418778 39.418778-85.327364 70.369697-136.421043 91.978854-52.892651 22.370497-109.088534 33.714869-167.030178 33.714869-57.93448 0-114.128317-11.343349-167.018921-33.714869-51.096748-21.608134-96.989985-52.552913-136.40774-91.977831-39.417755-39.418778-70.361511-85.313038-91.974761-136.411833-22.37152-52.892651-33.714869-109.088534-33.714869-167.026084 0-57.944713 11.343349-114.145713 33.715893-167.041434 21.61325-51.101865 52.55803-97.000218 91.974761-136.420019 39.416731-39.418778 85.310991-70.366627 136.40774-91.979878C373.563556 75.321476 429.756369 63.978127 487.691873 63.978127M487.691873 43.512003c-248.285806 0-449.582415 201.302749-449.582415 449.624371 0 248.295016 201.296609 449.593671 449.582415 449.593671 248.282736 0 449.63665-201.301725 449.63665-449.593671C937.328523 244.814752 735.974609 43.512003 487.691873 43.512003L487.691873 43.512003z" p-id="2791" fill="#2c2c2c"></path><path d="M771.502777 421.47731c0 0-241.811348-209.484082-255.577886-221.378993-13.71128-11.949146-28.14092-10.243295-28.14092-10.243295s-14.372336-1.651616-28.139897 10.243295c-13.71128 11.894911-255.68738 221.434252-255.68738 221.434252s-10.903328 9.141194-5.395894 20.265556c6.553253 13.326517 17.290805 12.060687 17.290805 12.060687l49.178049 0 0 240.597707c0 0-1.37737 17.789155 13.546527 34.143635 17.235546 18.943444 37.943171 17.238616 37.943171 17.238616l191.751209 0 0-0.057305 150.72584 0c0 0 20.705578 1.762133 37.886889-17.181311 14.924921-16.35448 13.547551-34.143635 13.547551-34.143635L710.43084 453.80253l49.231261 0c0 0 10.682293 1.322112 17.23657-12.004405C782.350846 430.619528 771.502777 421.47731 771.502777 421.47731zM685.868421 453.581496c0 35.465746 0 241.370303 0 241.370303s-0.604774 10.29753-5.614881 15.473413c-5.066389 5.2864-20.320814 10.409071-20.320814 10.409071L516.971733 720.834282l-57.217143 0L315.966767 720.834282c0 0-15.418154-5.122671-20.429285-10.409071-5.012154-5.175883-5.562692-15.473413-5.562692-15.473413s0-205.904557 0-241.370303c0-35.464723-56.225559-25.331945-56.225559-25.331945s238.45081-205.463512 243.076154-209.372541c4.571109-3.910053 11.510148-4.074805 11.510148-4.074805s6.27696-0.385786 11.509125 4.074805c5.066389 4.405333 241.919818 209.372541 241.919818 209.372541S685.868421 418.117796 685.868421 453.581496z" p-id="2792" fill="#2c2c2c"></path><path d="M501.651816 620.938108 596.922646 620.938108 596.922646 602.325192 501.651816 602.325192 501.651816 579.969021 609.697601 579.969021 609.697601 561.409316 365.739357 561.409316 365.739357 579.969021 480.724181 579.969021 480.724181 645.61002 419.762761 645.61002 419.762761 593.349773 398.836149 593.349773 398.836149 645.61002 346.575902 645.61002 346.575902 664.166655 630.899482 664.166655 630.899482 645.61002 501.651816 645.61002Z" p-id="2793" fill="#2c2c2c"></path><path d="M353.570199 558.159296c24.39562-13.326517 45.488007-28.801976 63.275115-46.424332l0 42.954301 19.439748 0 0-31.335682c14.923898 6.5553 30.507828 14.703887 46.752814 24.39869l9.912767-15.971763c-15.694447-8.369621-32.159444-16.57449-49.397037-24.726148l-7.268544 9.582239 0-17.401322 34.307364 0 0 7.268544 18.833951 0 0-62.723553-53.142337 0 0-17.732873 63.054081 0 0-17.401322-63.054081 0L436.284039 388.876822l-19.439748 0 0 19.769252-65.037249 0 0 17.401322 65.037249 0 0 17.732873-53.142337 0 0 62.723553 18.890232 0 0-7.268544 26.431999 0c-20.319791 18.006096-42.900066 32.159444-67.681472 42.401716C345.970104 547.806507 350.045933 553.367153 353.570199 558.159296zM436.285063 460.026278l34.307364 0 0 22.964014-34.307364 0L436.285063 460.026278zM382.59321 482.990293l0-22.964014 34.252105 0 0 22.964014L382.59321 482.990293z" p-id="2794" fill="#2c2c2c"></path><path d="M508.92036 486.183008c4.845355-7.764847 9.582239-15.804964 14.20656-24.12035 6.388501 18.008142 15.419178 33.481556 27.03882 46.478568-14.537088 11.618619-32.434713 21.475104-53.747111 29.626761 5.01113 6.774287 9.472745 12.941753 13.382798 18.559705 22.026666-9.472745 40.530089-20.705578 55.45501-33.70259 14.702863 11.452843 32.822546 21.144576 54.298673 29.074176 4.846378-8.314363 9.691733-15.582907 14.538111-21.806655-21.311375-5.616928-39.045271-13.273305-53.143361-22.909779 14.319124-17.841344 24.671912-39.97955 31.060413-66.522066l19.166525 0 0-18.558681L542.567691 422.302095c3.90903-9.30697 7.653307-18.888186 11.343349-28.746718l-20.320814-6.112208c-9.691733 33.095769-23.733541 61.953004-42.125423 86.514399L508.92036 486.183008zM591.084685 440.8618c-4.846378 20.705578-13.547551 38.547944-26.158776 53.416584-13.713326-14.3181-23.295566-32.106232-28.745694-53.416584L591.084685 440.8618z" p-id="2795" fill="#2c2c2c"></path></svg>