<?xml version="1.0" encoding="utf-8"?>
<svg version="1.1" xmlns:xlink="http://www.w3.org/1999/xlink" width="347px" height="517px" xmlns="http://www.w3.org/2000/svg">
  <g transform="matrix(1 0 0 1 -626 -316 )">
    <path d="M 627 320  A 3 3 0 0 1 630 317 L 969 317  A 3 3 0 0 1 972 320 L 972 829  A 3 3 0 0 1 969 832 L 630 832  A 3 3 0 0 1 627 829 L 627 320  Z " fill-rule="nonzero" fill="#ff3399" stroke="none" fill-opacity="0.0980392156862745" />
    <path d="M 626.5 320  A 3.5 3.5 0 0 1 630 316.5 L 969 316.5  A 3.5 3.5 0 0 1 972.5 320 L 972.5 829  A 3.5 3.5 0 0 1 969 832.5 L 630 832.5  A 3.5 3.5 0 0 1 626.5 829 L 626.5 320  Z " stroke-width="1" stroke-dasharray="9,4" stroke="#ff3399" fill="none" stroke-dashoffset="0.5" />
  </g>
</svg>