<?xml version="1.0" encoding="utf-8"?>
<svg version="1.1" xmlns:xlink="http://www.w3.org/1999/xlink" width="365px" height="67px" xmlns="http://www.w3.org/2000/svg">
  <g transform="matrix(1 0 0 1 -634 -978 )">
    <path d="M 635 982  A 3 3 0 0 1 638 979 L 995 979  A 3 3 0 0 1 998 982 L 998 1041  A 3 3 0 0 1 995 1044 L 638 1044  A 3 3 0 0 1 635 1041 L 635 982  Z " fill-rule="nonzero" fill="#ff3399" stroke="none" fill-opacity="0.0980392156862745" />
    <path d="M 634.5 982  A 3.5 3.5 0 0 1 638 978.5 L 995 978.5  A 3.5 3.5 0 0 1 998.5 982 L 998.5 1041  A 3.5 3.5 0 0 1 995 1044.5 L 638 1044.5  A 3.5 3.5 0 0 1 634.5 1041 L 634.5 982  Z " stroke-width="1" stroke-dasharray="9,4" stroke="#ff3399" fill="none" stroke-dashoffset="0.5" />
  </g>
</svg>