<?xml version="1.0" encoding="utf-8"?>
<svg version="1.1" xmlns:xlink="http://www.w3.org/1999/xlink" width="56px" height="33px" xmlns="http://www.w3.org/2000/svg">
  <g transform="matrix(1 0 0 1 -894 -4522 )">
    <path d="M 895 4526  A 3 3 0 0 1 898 4523 L 946 4523  A 3 3 0 0 1 949 4526 L 949 4551  A 3 3 0 0 1 946 4554 L 898 4554  A 3 3 0 0 1 895 4551 L 895 4526  Z " fill-rule="nonzero" fill="#ff3399" stroke="none" fill-opacity="0.0980392156862745" />
    <path d="M 894.5 4526  A 3.5 3.5 0 0 1 898 4522.5 L 946 4522.5  A 3.5 3.5 0 0 1 949.5 4526 L 949.5 4551  A 3.5 3.5 0 0 1 946 4554.5 L 898 4554.5  A 3.5 3.5 0 0 1 894.5 4551 L 894.5 4526  Z " stroke-width="1" stroke-dasharray="9,4" stroke="#ff3399" fill="none" stroke-dashoffset="0.5" />
  </g>
</svg>