<svg t="1604047524575" class="icon" viewBox="0 0 1024 1024" version="1.1" xmlns="http://www.w3.org/2000/svg" p-id="3113" width="16" height="16"><path d="M376.2176 747.52l87.8592-278.3232 110.1824 110.1824 28.3648-66.7648 48.2304 57.2416 124.1088-107.9296L785.7152 747.52z" fill="#F7C8D8" p-id="3114"></path><path d="M776.6016 765.0304H277.1968c-10.6496 0-19.3536-8.704-19.3536-19.3536V455.0656c0-7.8848 4.7104-14.848 11.8784-17.8176 7.2704-2.9696 15.4624-1.3312 20.992 4.1984l89.4976 89.4976c3.9936 3.9936 3.9936 10.4448 0 14.4384-3.9936 3.9936-10.4448 3.9936-14.4384 0l-87.552-87.552V744.448h497.0496V462.2336L692.224 545.28c-3.9936 3.9936-10.4448 3.9936-14.4384 0-3.9936-3.9936-3.9936-10.4448 0-14.4384l85.0944-85.0944c5.5296-5.5296 13.824-7.168 20.992-4.1984 7.2704 2.9696 11.8784 10.0352 11.8784 17.8176v286.3104c0.2048 10.6496-8.4992 19.3536-19.1488 19.3536z" fill="#EA5D93" p-id="3115"></path><path d="M693.5552 659.7632c-3.6864 0-7.168-1.9456-9.0112-5.4272L528.384 364.7488 372.0192 654.336c-2.6624 5.0176-8.9088 6.8608-13.9264 4.096-5.0176-2.6624-6.8608-8.9088-4.096-13.9264l157.4912-291.5328c3.3792-6.2464 9.9328-10.1376 16.9984-10.1376 7.0656 0 13.6192 3.8912 16.9984 10.1376l157.0816 291.4304c2.6624 5.0176 0.8192 11.1616-4.1984 13.824-1.536 1.1264-3.1744 1.536-4.8128 1.536z" fill="#EA5D93" p-id="3116"></path><path d="M528.896 349.696c-5.2224 0-10.4448-1.9456-14.4384-5.9392L471.7568 301.056c-7.9872-7.9872-7.9872-20.992 0-28.9792l42.5984-42.5984c7.9872-7.9872 20.992-7.9872 28.9792 0l42.5984 42.5984c7.9872 7.9872 7.9872 20.992 0 28.9792l-42.5984 42.5984c-3.9936 3.9936-9.216 6.0416-14.4384 6.0416z m0-20.48l42.5984-42.5984-42.5984-42.5984-42.5984 42.5984 42.5984 42.5984zM627.2 631.3984c-2.4576 0-4.9152-1.3312-6.2464-3.584l-10.8544-19.0464c-1.9456-3.4816-0.8192-7.7824 2.6624-9.8304 3.4816-1.9456 7.7824-0.8192 9.8304 2.6624l10.8544 19.0464c1.9456 3.4816 0.8192 7.7824-2.6624 9.8304-1.1264 0.6144-2.3552 0.9216-3.584 0.9216zM604.2624 589.7216c-2.56 0-5.0176-1.3312-6.2464-3.6864l-63.0784-114.2784c-1.9456-3.4816-0.6144-7.7824 2.7648-9.728 3.4816-1.9456 7.7824-0.6144 9.728 2.7648l63.0784 114.2784c1.9456 3.4816 0.6144 7.7824-2.7648 9.728-1.1264 0.6144-2.3552 0.9216-3.4816 0.9216z" fill="#EA5D93" p-id="3117"></path></svg>