<?xml version="1.0" encoding="utf-8"?>
<svg version="1.1" xmlns:xlink="http://www.w3.org/1999/xlink" width="15px" height="11px" xmlns="http://www.w3.org/2000/svg">
  <g transform="matrix(1 0 0 1 -263 -145 )">
    <path d="M 11.2890625 0.417410714285715  L 14.3359375 2.33258928571429  C 14.5182291666667 2.44717261904762  14.6744791666667 2.60267857142857  14.8046875 2.79910714285714  C 14.9348958333333 2.99553571428571  15 3.17559523809524  15 3.33928571428571  L 15 10.4107142857143  C 15 10.5744047619048  14.9088541666667 10.7135416666667  14.7265625 10.828125  C 14.5442708333333 10.9427083333333  14.3229166666667 11  14.0625 11  L 0.9375 11  C 0.677083333333333 11  0.455729166666667 10.9427083333333  0.2734375 10.828125  C 0.0911458333333333 10.7135416666667  0 10.5744047619048  0 10.4107142857143  L 0 0.589285714285715  C 0 0.425595238095238  0.0911458333333333 0.286458333333333  0.2734375 0.171875  C 0.455729166666667 0.0572916666666671  0.677083333333333 0  0.9375 0  L 9.6875 0  C 9.94791666666667 0  10.234375 0.0409226190476195  10.546875 0.122767857142857  C 10.859375 0.204613095238095  11.1067708333333 0.30282738095238  11.2890625 0.417410714285715  Z M 10.400390625 0.969866071428572  C 10.322265625 0.920758928571428  10.1888020833333 0.875744047619046  10 0.834821428571428  L 10 3.14285714285714  L 13.671875 3.14285714285714  C 13.6067708333333 3.02418154761905  13.53515625 2.94029017857143  13.45703125 2.89118303571429  L 10.400390625 0.969866071428572  Z M 1.25 10  L 13.75 10  L 13.75 3.92857142857143  L 9.6875 3.92857142857143  C 9.42708333333333 3.92857142857143  9.20572916666667 3.87127976190476  9.0234375 3.75669642857143  C 8.84114583333333 3.64211309523809  8.75 3.50297619047619  8.75 3.33928571428571  L 8.75 0.785714285714285  L 1.25 0.785714285714285  L 1.25 10  Z M 9.375 5.5  L 12.5 7.46428571428571  L 12.5 9.42857142857143  L 2.5 9.42857142857143  L 2.5 8.25  L 4.375 7.07142857142857  L 5.625 7.85714285714286  L 9.375 5.5  Z M 5.703125 5.94196428571429  C 5.33854166666667 6.17113095238095  4.89583333333333 6.28571428571429  4.375 6.28571428571429  C 3.85416666666667 6.28571428571429  3.41145833333333 6.17113095238095  3.046875 5.94196428571429  C 2.68229166666667 5.71279761904762  2.5 5.43452380952381  2.5 5.10714285714286  C 2.5 4.77976190476191  2.68229166666667 4.50148809523809  3.046875 4.27232142857143  C 3.41145833333333 4.04315476190476  3.85416666666667 3.92857142857143  4.375 3.92857142857143  C 4.89583333333333 3.92857142857143  5.33854166666667 4.04315476190476  5.703125 4.27232142857143  C 6.06770833333333 4.50148809523809  6.25 4.77976190476191  6.25 5.10714285714286  C 6.25 5.43452380952381  6.06770833333333 5.71279761904762  5.703125 5.94196428571429  Z " fill-rule="nonzero" fill="#ffffff" stroke="none" transform="matrix(1 0 0 1 263 145 )" />
  </g>
</svg>