<?xml version="1.0" encoding="utf-8"?>
<svg version="1.1" xmlns:xlink="http://www.w3.org/1999/xlink" width="365px" height="117px" xmlns="http://www.w3.org/2000/svg">
  <g transform="matrix(1 0 0 1 -638 -1432 )">
    <path d="M 639 1436  A 3 3 0 0 1 642 1433 L 999 1433  A 3 3 0 0 1 1002 1436 L 1002 1545  A 3 3 0 0 1 999 1548 L 642 1548  A 3 3 0 0 1 639 1545 L 639 1436  Z " fill-rule="nonzero" fill="#ff3399" stroke="none" fill-opacity="0.0980392156862745" />
    <path d="M 638.5 1436  A 3.5 3.5 0 0 1 642 1432.5 L 999 1432.5  A 3.5 3.5 0 0 1 1002.5 1436 L 1002.5 1545  A 3.5 3.5 0 0 1 999 1548.5 L 642 1548.5  A 3.5 3.5 0 0 1 638.5 1545 L 638.5 1436  Z " stroke-width="1" stroke-dasharray="9,4" stroke="#ff3399" fill="none" stroke-dashoffset="0.5" />
  </g>
</svg>