<?xml version="1.0" encoding="utf-8"?>
<svg version="1.1" xmlns:xlink="http://www.w3.org/1999/xlink" width="365px" height="73px" xmlns="http://www.w3.org/2000/svg">
  <g transform="matrix(1 0 0 1 -638 -1996 )">
    <path d="M 639 2000  A 3 3 0 0 1 642 1997 L 999 1997  A 3 3 0 0 1 1002 2000 L 1002 2065  A 3 3 0 0 1 999 2068 L 642 2068  A 3 3 0 0 1 639 2065 L 639 2000  Z " fill-rule="nonzero" fill="#ff3399" stroke="none" fill-opacity="0.0980392156862745" />
    <path d="M 638.5 2000  A 3.5 3.5 0 0 1 642 1996.5 L 999 1996.5  A 3.5 3.5 0 0 1 1002.5 2000 L 1002.5 2065  A 3.5 3.5 0 0 1 999 2068.5 L 642 2068.5  A 3.5 3.5 0 0 1 638.5 2065 L 638.5 2000  Z " stroke-width="1" stroke-dasharray="9,4" stroke="#ff3399" fill="none" stroke-dashoffset="0.5" />
  </g>
</svg>