<?xml version="1.0" encoding="utf-8"?>
<svg version="1.1" xmlns:xlink="http://www.w3.org/1999/xlink" width="365px" height="73px" xmlns="http://www.w3.org/2000/svg">
  <g transform="matrix(1 0 0 1 -638 -2140 )">
    <path d="M 639 2144  A 3 3 0 0 1 642 2141 L 999 2141  A 3 3 0 0 1 1002 2144 L 1002 2209  A 3 3 0 0 1 999 2212 L 642 2212  A 3 3 0 0 1 639 2209 L 639 2144  Z " fill-rule="nonzero" fill="#ff3399" stroke="none" fill-opacity="0.0980392156862745" />
    <path d="M 638.5 2144  A 3.5 3.5 0 0 1 642 2140.5 L 999 2140.5  A 3.5 3.5 0 0 1 1002.5 2144 L 1002.5 2209  A 3.5 3.5 0 0 1 999 2212.5 L 642 2212.5  A 3.5 3.5 0 0 1 638.5 2209 L 638.5 2144  Z " stroke-width="1" stroke-dasharray="9,4" stroke="#ff3399" fill="none" stroke-dashoffset="0.5" />
  </g>
</svg>