<?xml version="1.0" encoding="utf-8"?>
<svg version="1.1" xmlns:xlink="http://www.w3.org/1999/xlink" width="355px" height="303px" xmlns="http://www.w3.org/2000/svg">
  <g transform="matrix(1 0 0 1 -656 -3723 )">
    <path d="M 657 3727  A 3 3 0 0 1 660 3724 L 1007 3724  A 3 3 0 0 1 1010 3727 L 1010 4022  A 3 3 0 0 1 1007 4025 L 660 4025  A 3 3 0 0 1 657 4022 L 657 3727  Z " fill-rule="nonzero" fill="#ff3399" stroke="none" fill-opacity="0.0980392156862745" />
    <path d="M 656.5 3727  A 3.5 3.5 0 0 1 660 3723.5 L 1007 3723.5  A 3.5 3.5 0 0 1 1010.5 3727 L 1010.5 4022  A 3.5 3.5 0 0 1 1007 4025.5 L 660 4025.5  A 3.5 3.5 0 0 1 656.5 4022 L 656.5 3727  Z " stroke-width="1" stroke-dasharray="9,4" stroke="#ff3399" fill="none" stroke-dashoffset="0.5" />
  </g>
</svg>