<?xml version="1.0" encoding="utf-8"?>
<svg version="1.1" xmlns:xlink="http://www.w3.org/1999/xlink" width="355px" height="370px" xmlns="http://www.w3.org/2000/svg">
  <g transform="matrix(1 0 0 1 -628 -4180 )">
    <path d="M 629 4184  A 3 3 0 0 1 632 4181 L 979 4181  A 3 3 0 0 1 982 4184 L 982 4546  A 3 3 0 0 1 979 4549 L 632 4549  A 3 3 0 0 1 629 4546 L 629 4184  Z " fill-rule="nonzero" fill="#ff3399" stroke="none" fill-opacity="0.0980392156862745" />
    <path d="M 628.5 4184  A 3.5 3.5 0 0 1 632 4180.5 L 979 4180.5  A 3.5 3.5 0 0 1 982.5 4184 L 982.5 4546  A 3.5 3.5 0 0 1 979 4549.5 L 632 4549.5  A 3.5 3.5 0 0 1 628.5 4546 L 628.5 4184  Z " stroke-width="1" stroke-dasharray="9,4" stroke="#ff3399" fill="none" stroke-dashoffset="0.5" />
  </g>
</svg>