<?xml version="1.0" encoding="utf-8"?>
<svg version="1.1" xmlns:xlink="http://www.w3.org/1999/xlink" width="365px" height="67px" xmlns="http://www.w3.org/2000/svg">
  <g transform="matrix(1 0 0 1 -634 -1145 )">
    <path d="M 635 1149  A 3 3 0 0 1 638 1146 L 995 1146  A 3 3 0 0 1 998 1149 L 998 1208  A 3 3 0 0 1 995 1211 L 638 1211  A 3 3 0 0 1 635 1208 L 635 1149  Z " fill-rule="nonzero" fill="#ff3399" stroke="none" fill-opacity="0.0980392156862745" />
    <path d="M 634.5 1149  A 3.5 3.5 0 0 1 638 1145.5 L 995 1145.5  A 3.5 3.5 0 0 1 998.5 1149 L 998.5 1208  A 3.5 3.5 0 0 1 995 1211.5 L 638 1211.5  A 3.5 3.5 0 0 1 634.5 1208 L 634.5 1149  Z " stroke-width="1" stroke-dasharray="9,4" stroke="#ff3399" fill="none" stroke-dashoffset="0.5" />
  </g>
</svg>