<?xml version="1.0" encoding="utf-8"?>
<svg version="1.1" xmlns:xlink="http://www.w3.org/1999/xlink" width="365px" height="430px" xmlns="http://www.w3.org/2000/svg">
  <g transform="matrix(1 0 0 1 -638 -3264 )">
    <path d="M 639 3268  A 3 3 0 0 1 642 3265 L 999 3265  A 3 3 0 0 1 1002 3268 L 1002 3690  A 3 3 0 0 1 999 3693 L 642 3693  A 3 3 0 0 1 639 3690 L 639 3268  Z " fill-rule="nonzero" fill="#ff3399" stroke="none" fill-opacity="0.0980392156862745" />
    <path d="M 638.5 3268  A 3.5 3.5 0 0 1 642 3264.5 L 999 3264.5  A 3.5 3.5 0 0 1 1002.5 3268 L 1002.5 3690  A 3.5 3.5 0 0 1 999 3693.5 L 642 3693.5  A 3.5 3.5 0 0 1 638.5 3690 L 638.5 3268  Z " stroke-width="1" stroke-dasharray="9,4" stroke="#ff3399" fill="none" stroke-dashoffset="0.5" />
  </g>
</svg>