<?xml version="1.0" encoding="utf-8"?>
<svg version="1.1" xmlns:xlink="http://www.w3.org/1999/xlink" width="355px" height="303px" xmlns="http://www.w3.org/2000/svg">
  <g transform="matrix(1 0 0 1 -656 -3890 )">
    <path d="M 657 3894  A 3 3 0 0 1 660 3891 L 1007 3891  A 3 3 0 0 1 1010 3894 L 1010 4189  A 3 3 0 0 1 1007 4192 L 660 4192  A 3 3 0 0 1 657 4189 L 657 3894  Z " fill-rule="nonzero" fill="#ff3399" stroke="none" fill-opacity="0.0980392156862745" />
    <path d="M 656.5 3894  A 3.5 3.5 0 0 1 660 3890.5 L 1007 3890.5  A 3.5 3.5 0 0 1 1010.5 3894 L 1010.5 4189  A 3.5 3.5 0 0 1 1007 4192.5 L 660 4192.5  A 3.5 3.5 0 0 1 656.5 4189 L 656.5 3894  Z " stroke-width="1" stroke-dasharray="9,4" stroke="#ff3399" fill="none" stroke-dashoffset="0.5" />
  </g>
</svg>