<?xml version="1.0" encoding="utf-8"?>
<svg version="1.1" xmlns:xlink="http://www.w3.org/1999/xlink" width="355px" height="370px" xmlns="http://www.w3.org/2000/svg">
  <g transform="matrix(1 0 0 1 -614 -4347 )">
    <path d="M 615 4351  A 3 3 0 0 1 618 4348 L 965 4348  A 3 3 0 0 1 968 4351 L 968 4713  A 3 3 0 0 1 965 4716 L 618 4716  A 3 3 0 0 1 615 4713 L 615 4351  Z " fill-rule="nonzero" fill="#ff3399" stroke="none" fill-opacity="0.0980392156862745" />
    <path d="M 614.5 4351  A 3.5 3.5 0 0 1 618 4347.5 L 965 4347.5  A 3.5 3.5 0 0 1 968.5 4351 L 968.5 4713  A 3.5 3.5 0 0 1 965 4716.5 L 618 4716.5  A 3.5 3.5 0 0 1 614.5 4713 L 614.5 4351  Z " stroke-width="1" stroke-dasharray="9,4" stroke="#ff3399" fill="none" stroke-dashoffset="0.5" />
  </g>
</svg>