<?xml version="1.0" encoding="utf-8"?>
<svg version="1.1" xmlns:xlink="http://www.w3.org/1999/xlink" width="347px" height="180px" xmlns="http://www.w3.org/2000/svg">
  <g transform="matrix(1 0 0 1 -643 -422 )">
    <path d="M 644 426  A 3 3 0 0 1 647 423 L 986 423  A 3 3 0 0 1 989 426 L 989 598  A 3 3 0 0 1 986 601 L 647 601  A 3 3 0 0 1 644 598 L 644 426  Z " fill-rule="nonzero" fill="#ff3399" stroke="none" fill-opacity="0.0980392156862745" />
    <path d="M 643.5 426  A 3.5 3.5 0 0 1 647 422.5 L 986 422.5  A 3.5 3.5 0 0 1 989.5 426 L 989.5 598  A 3.5 3.5 0 0 1 986 601.5 L 647 601.5  A 3.5 3.5 0 0 1 643.5 598 L 643.5 426  Z " stroke-width="1" stroke-dasharray="9,4" stroke="#ff3399" fill="none" stroke-dashoffset="0.5" />
  </g>
</svg>