<svg t="1604917705507" class="icon" viewBox="0 0 1024 1024" version="1.1" xmlns="http://www.w3.org/2000/svg" p-id="2890" width="32" height="32"><path d="M511.951499 1023.999903A511.951499 511.951499 0 1 1 939.982877 793.074213a27.424243 27.424243 0 0 1-45.933184-30.137596 456.32777 456.32777 0 1 0-136.34597 134.601672 27.424243 27.424243 0 1 1 29.071635 46.2239 510.110295 510.110295 0 0 1-274.823859 80.237714z" p-id="2891" fill="#8a8a8a"></path><path d="M392.273267 733.283549a27.521148 27.521148 0 0 1-27.424243-27.521148v-387.621805a27.521148 27.521148 0 0 1 41.184817-23.741835l335.680483 193.810902a27.424243 27.424243 0 0 1 0 47.580577l-335.680483 193.810902a27.90877 27.90877 0 0 1-13.760574 3.682407z m27.521148-367.465471v292.363747l253.310849-146.230326z" p-id="2892" fill="#8a8a8a"></path></svg>